<svg xmlns="http://www.w3.org/2000/svg" width="84" height="100">
  <defs>
    <linearGradient id="a" x1="0%" x2="0%" y1="100%" y2="0%">
      <stop offset="0%" stop-color="#F45F5F"/>
      <stop offset="100%" stop-color="#EE3C3C"/>
    </linearGradient>
  </defs>
  <path fill-rule="evenodd" fill="url(#a)" d="M84 22v74a4 4 0 0 1-4 4H4a4 4 0 0 1-4-4V4a4 4 0 0 1 4-4h58l22 22z"/>
  <path fill-rule="evenodd" fill="#FF8578" d="M84 22H66a4 4 0 0 1-4-4V0l22 22z"/>
  <path fill-rule="evenodd" opacity=".6" fill="#FFF" d="M64.422 71.822c-.27.962-.943.686-1.482 1.237-.27-.275-.808.274-1.348 0-2.964.274-8.084-1.649-11.991-3.847-5.39.687-11.184 2.747-16.439 3.847-4.581 8.653-7.815 11.538-10.779 11.95-.27-.275-1.212 0-1.482-.55l-1.078-.412c-.674-.962-1.078-1.099-.674-2.197.405-1.924 2.964-5.083 7.007-7.281.404-.412 2.56-1.373 2.56-1.51l1.212-.551c1.078-2.059 2.426-4.395 3.773-7.142l.135-.137 4.042-8.791.404-.824c-1.751-6.869-2.425-11.264-1.751-14.973.538-.549 1.212-1.923 2.829-1.511l.674-.137c1.212.275 2.021.824 2.425 1.923l.135.275c0 .549.135.275.135.961.404 2.473-1.078 11.264-1.078 11.127 0 .549-.135.549-.135 1.098 1.078 3.435 3.369 7.555 6.063 9.478.944 1.236 2.291 1.511 3.369 2.611 2.695-.825 5.12-.276 7.276-.688 3.233.412 4.985.412 6.063 1.51v-.136c.269.549.674.824.674 1.373 0 .961.269 2.885-.539 3.297zm-37.054 3.984c-2.748 2.8-4.972 5.08-5.469 6.845-.018.005-.037.018-.055.022v.138c.012-.052.04-.108.055-.16 1.602-.453 3.351-2.917 6.682-7.807-.674.412-.808.962-1.213.962zm12.397-35.303c-.27-.274-.404 3.573-.404 3.298 0 1.648.538 4.532.808 6.18.673-1.373 1.077-2.609 1.077-4.944 0-1.923-.404-4.945-1.481-4.534zm5.793 25.962c-2.156-2.197-4.312-4.121-5.659-7.417-.674 2.198-1.751 4.67-3.503 7.829-.808 1.236-1.213 2.747-2.021 3.572v.137c3.638-1.511 7.546-2.061 12.126-3.572-.134.138-.673-.549-.943-.549zM61.997 68.8c-1.617 0-2.021-.687-3.773-.275-.674-.412-2.021 0-2.964 0 2.829 1.373 4.85 1.649 6.602 2.06.27-.274 1.482.276 1.482-.411v.137c.404-.413.404-.825-1.347-1.511z"/>
  <path fill-rule="evenodd" fill="#FFF" d="M41.658 11.959c-1.018 0-1.592.508-1.592 1.691v.978h2.443v1.407h-2.443v9.132h-1.701v-9.132h-1.77v-1.407h1.77v-1.027c0-2.16 1.138-3.06 3.194-3.06.337 0 .633.03 1.049.098v1.408a5.133 5.133 0 0 0-.95-.088zm-8.916 11.526h-.158c-.672 1.173-1.938 1.867-3.411 1.867-2.73 0-4.48-2.141-4.48-5.455 0-3.304 1.77-5.455 4.48-5.455 1.483 0 2.739.694 3.342 1.848h.148v-5.847h1.701v14.724h-1.622v-1.682zm-3.174-7.528c-1.938 0-3.115 1.486-3.115 3.94 0 2.464 1.167 3.94 3.115 3.94 1.938 0 3.135-1.506 3.135-3.94 0-2.415-1.206-3.94-3.135-3.94zm-11.477 9.395c-1.523 0-2.749-.655-3.332-1.769H14.6v5.103h-1.7V14.628h1.621v1.759h.158c.683-1.212 1.958-1.945 3.412-1.945 2.719 0 4.48 2.141 4.48 5.455 0 3.295-1.77 5.455-4.48 5.455zm-.395-9.395c-1.929 0-3.145 1.516-3.145 3.94 0 2.415 1.216 3.94 3.135 3.94 1.958 0 3.124-1.476 3.124-3.94s-1.166-3.94-3.114-3.94z"/>
</svg>
