<?xml version="1.0" standalone="no"?><!DOCTYPE svg PUBLIC "-//W3C//DTD SVG 1.1//EN" "http://www.w3.org/Graphics/SVG/1.1/DTD/svg11.dtd"><svg t="1611372977925" class="icon" viewBox="0 0 1024 1024" version="1.1" xmlns="http://www.w3.org/2000/svg" p-id="1701" width="27" height="22" xmlns:xlink="http://www.w3.org/1999/xlink"><defs><style type="text/css"></style></defs><path d="M797.909333 219.818667h-91.306666v-21.333334a27.392 27.392 0 0 0-54.784 0v21.333334H371.754667v-21.333334a27.392 27.392 0 1 0-54.784 0v21.333334H225.621333c-30.293333 0-54.784 24.490667-54.784 54.784v523.605333c0 30.293333 24.490667 54.784 54.826667 54.784H797.866667c30.293333 0 54.826667-24.618667 54.826666-54.784V274.602667c0-30.293333-24.490667-54.784-54.826666-54.784zM317.013333 270.805333v19.029334a27.392 27.392 0 0 0 54.784 0v-19.029334h280.064v19.029334a27.392 27.392 0 0 0 54.784 0v-19.029334h95.146667v95.146667H221.866667v-95.146667h95.104z m487.04 533.205334H219.989333V414.592h584.021334v389.418667zM341.333333 512.042667h48.64a24.362667 24.362667 0 0 1 0 48.725333H341.333333a24.32 24.32 0 1 1 0-48.682667V512z m146.090667 0h48.682667a24.362667 24.362667 0 0 1 0 48.725333h-48.64a24.32 24.32 0 0 1 0-48.682667L487.424 512z m146.090667 0h48.768a24.362667 24.362667 0 0 1 0 48.725333h-48.768a24.32 24.32 0 1 1 0-48.682667V512zM341.333333 659.626667h48.768a24.362667 24.362667 0 0 1 0 48.682666H341.333333a24.32 24.32 0 0 1 0-48.682666z m146.176 0h48.682667a24.362667 24.362667 0 0 1 0 48.682666h-48.725333a24.32 24.32 0 0 1 0-48.682666z" fill="#999999" p-id="1702"></path></svg>