<svg xmlns="http://www.w3.org/2000/svg" width="84" height="100">
  <defs>
    <linearGradient id="a" x1="0%" x2="0%" y1="100%" y2="0%">
      <stop offset="0%" stop-color="#F45F5F"/>
      <stop offset="100%" stop-color="#EE3C3C"/>
    </linearGradient>
  </defs>
  <path fill-rule="evenodd" fill="url(#a)" d="M84 22v74a4 4 0 0 1-4 4H4a4 4 0 0 1-4-4V4a4 4 0 0 1 4-4h58l22 22z"/>
  <path fill-rule="evenodd" fill="#FF8578" d="M84 22H66a4 4 0 0 1-4-4V0l22 22z"/>
  <path fill-rule="evenodd" opacity=".6" fill="#FFF" d="M19.162 81.782c2.206 2.801 6.763 2.983 10.179.41 1.389-1.048 2.351-2.392 2.884-3.802.307-.595.508-1.921.508-2.885V54.858l24.579-6.073V60.93c0 4.015-2.404 4.916-3.516 5.121-.097.011-.192.034-.289.052l-.124.014.018.006a8.981 8.981 0 0 0-3.829 1.667c-3.415 2.574-4.397 6.93-2.191 9.731 2.206 2.801 6.763 2.986 10.179.413 1.728-1.304 2.828-3.064 3.211-4.847.133-.433.228-.686.228-1.226V42.712c0-1.592-2.059-4.131-3.687-3.644l-25.808 6.073c-1.628.485-2.458 2.052-2.458 3.644v17.003c0 4.022-2.413 4.322-3.522 4.524-.056.008-.112.026-.171.034a3.291 3.291 0 0 1-.239.032l.032.014a9.021 9.021 0 0 0-3.793 1.659c-3.415 2.574-4.394 6.93-2.191 9.731z"/>
  <path fill-rule="evenodd" fill="#FFF" d="M49.544 17.707v.157c1.938.244 3.115 1.574 3.115 3.5 0 2.326-2.205 4.135-5.024 4.135-2.897 0-4.895-1.594-5.023-4.008h1.721c.158 1.505 1.443 2.473 3.283 2.473 1.878 0 3.213-1.105 3.213-2.649 0-1.633-1.255-2.65-3.283-2.65h-1.809V17.16h1.73c1.622 0 2.769-1.037 2.769-2.503 0-1.437-1.098-2.395-2.739-2.395-1.642 0-2.719.899-2.868 2.415h-1.73c.178-2.445 1.948-3.95 4.667-3.95 2.492 0 4.48 1.642 4.48 3.695 0 1.682-.94 2.914-2.502 3.285zm-13.851 7.645c-1.522 0-2.749-.655-3.332-1.769h-.158v5.103h-1.701V14.628h1.622v1.759h.158c.682-1.212 1.958-1.945 3.411-1.945 2.72 0 4.48 2.141 4.48 5.455 0 3.295-1.77 5.455-4.48 5.455zm-.395-9.395c-1.928 0-3.145 1.516-3.145 3.94 0 2.415 1.217 3.94 3.135 3.94 1.958 0 3.125-1.476 3.125-3.94s-1.167-3.94-3.115-3.94zm-9.583 2.317c0-1.554-.741-2.317-2.244-2.317-1.484 0-2.473 1.095-2.473 2.435v6.775h-1.701V18.01c0-1.251-.88-2.053-2.224-2.053-1.395 0-2.473 1.193-2.473 2.679v6.531h-1.7V14.628h1.621v1.662h.158c.485-1.174 1.553-1.848 2.977-1.848 1.444 0 2.452.753 2.947 1.848h.158c.574-1.115 1.79-1.848 3.263-1.848 2.176 0 3.392 1.232 3.392 3.441v7.284h-1.701v-6.893z"/>
</svg>
