<svg xmlns="http://www.w3.org/2000/svg" width="84" height="100">
  <defs>
    <linearGradient id="a" x1="0%" x2="0%" y1="100%" y2="0%">
      <stop offset="0%" stop-color="#9E9EEE"/>
      <stop offset="100%" stop-color="#7D7CE5"/>
    </linearGradient>
  </defs>
  <path fill-rule="evenodd" fill="url(#a)" d="M84 22v74a4 4 0 0 1-4 4H4a4 4 0 0 1-4-4V4a4 4 0 0 1 4-4h58l22 22z"/>
  <path fill-rule="evenodd" fill="#D9DEFA" d="M84 22H66a4 4 0 0 1-4-4V0l22 22z"/>
  <path fill-rule="evenodd" fill="#FFF" d="M60.077 53.243v2.924h-1.741v-2.924h-6.952V51.64c1.276-2.239 3.541-5.778 6.112-9.581h2.581v9.61h2.027v1.574h-2.027zm-1.731-9.551h-.119c-1.463 2.102-3.322 5.015-5.023 7.87v.117h5.142v-7.987zm-13.653 12.66c-1.522 0-2.749-.655-3.332-1.769h-.158v5.103h-1.701V45.628h1.622v1.759h.158c.682-1.212 1.958-1.945 3.411-1.945 2.72 0 4.48 2.141 4.48 5.455 0 3.295-1.77 5.455-4.48 5.455zm-.395-9.395c-1.928 0-3.145 1.516-3.145 3.94 0 2.415 1.217 3.94 3.135 3.94 1.958 0 3.125-1.476 3.125-3.94s-1.167-3.94-3.115-3.94zm-9.583 2.317c0-1.554-.741-2.317-2.244-2.317-1.484 0-2.473 1.095-2.473 2.435v6.775h-1.701V49.01c0-1.251-.88-2.053-2.224-2.053-1.395 0-2.473 1.193-2.473 2.679v6.531h-1.7V45.628h1.621v1.662h.158c.485-1.174 1.553-1.848 2.977-1.848 1.444 0 2.452.753 2.947 1.848h.158c.574-1.115 1.79-1.848 3.263-1.848 2.176 0 3.392 1.232 3.392 3.441v7.284h-1.701v-6.893z"/>
</svg>
