<svg xmlns="http://www.w3.org/2000/svg" width="84" height="100">
  <defs>
    <linearGradient id="a" x1="0%" x2="0%" y1="100%" y2="0%">
      <stop offset="0%" stop-color="#4D9CFC"/>
      <stop offset="100%" stop-color="#2B79FA"/>
    </linearGradient>
  </defs>
  <path fill-rule="evenodd" fill="url(#a)" d="M84 22v74a4 4 0 0 1-4 4H4a4 4 0 0 1-4-4V4a4 4 0 0 1 4-4h58l22 22z"/>
  <path fill-rule="evenodd" fill="#A6CAFD" d="M84 22H66a4 4 0 0 1-4-4V0l22 22z"/>
  <path fill-rule="evenodd" opacity=".6" fill="#FFF" d="M43.583 59.101s.974-5.495 5.008-9.477c4.033-3.982 9.598-4.944 9.598-4.944s-.974 5.494-5.008 9.477c-4.033 3.982-9.598 4.944-9.598 4.944zm-4.675-10.909c0-5.632 3.245-10.197 3.245-10.197s3.246 4.565 3.246 10.197c0 5.632-3.246 10.198-3.246 10.198s-3.245-4.566-3.245-10.198zm-8.042 5.64c-4.074-3.999-5.058-9.517-5.058-9.517s5.621.967 9.695 4.966c4.075 3.999 5.059 9.516 5.059 9.516s-5.621-.966-9.696-4.965zm8.934 6.452s-4.667 3.242-10.412 3.258c-5.745.017-10.392-3.198-10.392-3.198s4.666-3.241 10.411-3.258c5.745-.016 10.393 3.198 10.393 3.198zm.762 1.598s-.984 5.518-5.059 9.517c-4.074 3.999-9.695 4.965-9.695 4.965s.984-5.517 5.058-9.517c4.075-3.999 9.696-4.965 9.696-4.965zm4.686 10.844c-.017 5.673-3.3 10.28-3.3 10.28s-3.256-4.588-3.239-10.261c.017-5.672 3.3-10.279 3.3-10.279s3.256 4.588 3.239 10.26zm-.903-12.172s4.624-3.205 10.328-3.205 10.329 3.205 10.329 3.205-4.625 3.205-10.329 3.205c-5.704 0-10.328-3.205-10.328-3.205zm8.836 6.552c4.034 3.982 5.008 9.477 5.008 9.477s-5.565-.962-9.598-4.945c-4.034-3.982-5.008-9.477-5.008-9.477s5.565.962 9.598 4.945z"/>
  <path fill-rule="evenodd" fill="#FFF" d="M41.77 29.438c-2.571 0-4.213-1.144-4.47-2.884h1.8c.188.86 1.137 1.417 2.67 1.417 1.908 0 3.045-.929 3.045-2.483v-2.073h-.158c-.672 1.164-1.879 1.819-3.342 1.819-2.759 0-4.47-2.112-4.47-5.27 0-3.157 1.731-5.298 4.47-5.298 1.493 0 2.808.723 3.421 1.857h.158v-1.672h1.622v10.725c0 2.356-1.839 3.862-4.746 3.862zm-.08-13.257c-1.977 0-3.085 1.486-3.085 3.783 0 2.298 1.108 3.784 3.085 3.784 1.978 0 3.165-1.486 3.165-3.784 0-2.297-1.197-3.783-3.165-3.783zm-9.104 2.796c0-1.897-.811-2.796-2.512-2.796s-2.798 1.124-2.798 2.972v6.237h-1.701V14.851h1.622v1.662h.158c.534-1.163 1.572-1.847 3.204-1.847 2.393 0 3.728 1.398 3.728 3.9v6.824h-1.701v-6.413zm-14.147 6.599c-1.523 0-2.749-.655-3.333-1.77h-.158v5.104h-1.701V14.851h1.622v1.76h.158c.683-1.212 1.958-1.945 3.412-1.945 2.719 0 4.479 2.141 4.479 5.455 0 3.294-1.77 5.455-4.479 5.455zm-.396-9.395c-1.928 0-3.144 1.515-3.144 3.94 0 2.415 1.216 3.94 3.134 3.94 1.958 0 3.125-1.477 3.125-3.94 0-2.464-1.167-3.94-3.115-3.94z"/>
</svg>
