<svg xmlns="http://www.w3.org/2000/svg" width="84" height="100">
  <defs>
    <linearGradient id="a" x1="0%" x2="0%" y1="100%" y2="0%">
      <stop offset="0%" stop-color="#98BCCD"/>
      <stop offset="100%" stop-color="#76A1B7"/>
    </linearGradient>
  </defs>
  <path fill-rule="evenodd" fill="url(#a)" d="M84 22v74a4 4 0 0 1-4 4H4a4 4 0 0 1-4-4V4a4 4 0 0 1 4-4h58l22 22z"/>
  <path fill-rule="evenodd" fill="#BEEAFF" d="M84 22H66a4 4 0 0 1-4-4V0l22 22z"/>
  <path fill-rule="evenodd" opacity=".6" fill="#FFF" d="M18.408 42.739v2.316h3.447c.953 3.23 2.654 6.058 5.104 8.508-2.359 1.96-5.353 3.386-8.959 4.299l1.27 2.049c3.697-1.025 6.827-2.651 9.367-4.855 2.405 1.959 5.421 3.607 9.05 4.944l1.316-1.982c-3.448-1.248-6.351-2.762-8.687-4.588 2.087-2.25 3.674-5.034 4.763-8.375h3.425v-2.316H29.93c-.68-1.448-1.429-2.695-2.245-3.742l-2.382.847c.817.913 1.52 1.87 2.087 2.895h-8.982zm5.716 2.316h8.505c-.884 2.695-2.222 5.011-3.992 6.927-2.086-2.005-3.583-4.299-4.513-6.927zM63.755 61.015h-17.49c-.69 0-1.25-.56-1.25-1.251v-2.503c0-.691.56-1.251 1.25-1.251h17.49c.69 0 1.249.56 1.249 1.251v2.503a1.25 1.25 0 0 1-1.249 1.251zM63.788 47H46.201c-.671 0-1.216-.56-1.216-1.251v-2.503c0-.691.545-1.251 1.216-1.251h17.587c.672 0 1.216.56 1.216 1.251v2.503c0 .691-.544 1.251-1.216 1.251zm1.216 25.245v2.502c0 .691-.542 1.252-1.211 1.252H20.199c-.669 0-1.211-.561-1.211-1.252v-2.502c0-.691.542-1.251 1.211-1.251h43.594c.669 0 1.211.56 1.211 1.251z"/>
  <path fill-rule="evenodd" fill="#FFF" d="M36.872 24.769c.307 0 .475-.01.791-.04v1.418a5.72 5.72 0 0 1-.998.098c-2.196 0-3.076-.802-3.076-2.816v-6.394h-1.72v-1.407h1.72V12.9h1.701v2.728h2.373v1.407H35.29v5.964c0 1.242.475 1.77 1.582 1.77zm-8.324 1.398l-2.522-3.979h-.158l-2.532 3.979h-1.928l3.649-5.27-3.688-5.269h2.027l2.531 3.92h.158l2.502-3.92h1.929l-3.62 5.201 3.669 5.338h-2.017zm-12.936-2.738v-6.394h-1.721v-1.407h1.721V12.9h1.7v2.728h2.374v1.407h-2.374v5.964c0 1.242.475 1.77 1.583 1.77.306 0 .474-.01.791-.04v1.418a5.74 5.74 0 0 1-.999.098c-2.195 0-3.075-.802-3.075-2.816z"/>
</svg>
