<svg xmlns="http://www.w3.org/2000/svg" width="85" height="100" viewBox="0 0 85 100">
  <defs>
    <linearGradient id="xls-a" x1="50%" x2="50%" y1="0%" y2="100%">
      <stop offset="0%" stop-color="#3BA065"/>
      <stop offset="100%" stop-color="#5AC486"/>
    </linearGradient>
  </defs>
  <g fill="none" fill-rule="evenodd">
    <path fill="url(#xls-a)" d="M6,0 L62.3333333,0 L62.3333333,0 L85,22.8571429 L85,94 C85,97.3137085 82.3137085,100 79,100 L6,100 C2.6862915,100 4.05812251e-16,97.3137085 0,94 L0,6 C-4.05812251e-16,2.6862915 2.6862915,6.08718376e-16 6,0 Z"/>
    <rect width="22.667" height="2.817" x="51" y="33.803" fill="#FFF" opacity=".5"/>
    <rect width="22.667" height="2.817" x="51" y="45.07" fill="#FFF" opacity=".5"/>
    <rect width="22.667" height="2.817" x="51" y="56.338" fill="#FFF" opacity=".5"/>
    <rect width="22.667" height="2.817" x="51" y="67.606" fill="#FFF" opacity=".5"/>
    <path fill="#FFF" d="M62.3333333,0 L85,22.5352113 L68.3333333,22.5352113 C65.0196248,22.5352113 62.3333333,19.8489198 62.3333333,16.5352113 L62.3333333,0 L62.3333333,0 Z" opacity=".5"/>
    <rect width="42.5" height="42.254" y="30.986" fill="#30955A" rx="2"/>
    <path fill="#FFF" fill-rule="nonzero" d="M27.3550388,39.0383716 L10.3550388,61.5735828 C9.35722656,62.8962834 9.62060058,64.7774307 10.9433011,65.7752429 C12.2660017,66.7730551 14.147149,66.5096811 15.1449612,65.1869806 L32.1449612,42.6517693 C33.1427734,41.3290687 32.8793994,39.4479214 31.5566989,38.4501092 C30.2339983,37.452297 28.352851,37.715671 27.3550388,39.0383716 Z"/>
    <path fill="#FFF" fill-rule="nonzero" d="M27.3550388,39.0383716 L10.3550388,61.5735828 C9.35722656,62.8962834 9.62060058,64.7774307 10.9433011,65.7752429 C12.2660017,66.7730551 14.147149,66.5096811 15.1449612,65.1869806 L32.1449612,42.6517693 C33.1427734,41.3290687 32.8793994,39.4479214 31.5566989,38.4501092 C30.2339983,37.452297 28.352851,37.715671 27.3550388,39.0383716 Z" transform="matrix(-1 0 0 1 42.5 0)"/>
  </g>
</svg>
