<svg xmlns="http://www.w3.org/2000/svg" width="99" height="100" viewBox="0 0 99 100">
  <g fill="none" fill-rule="evenodd">
    <path fill="#43BA73" d="M4,69.0140845 L95,69.0140845 C97.209139,69.0140845 99,70.8049455 99,73.0140845 L99,88 C99,94.627417 93.627417,100 87,100 L12,100 C5.372583,100 8.11624501e-16,94.627417 0,88 L0,73.0140845 C-2.705415e-16,70.8049455 1.790861,69.0140845 4,69.0140845 Z"/>
    <path fill="#4AB0F7" d="M12,0 L87,0 C93.627417,-5.32740867e-15 99,5.372583 99,12 L99,26.9859155 C99,29.1950545 97.209139,30.9859155 95,30.9859155 L4,30.9859155 C1.790861,30.9859155 2.705415e-16,29.1950545 0,26.9859155 L0,12 C9.64732338e-16,5.372583 5.372583,2.99379359e-15 12,0 Z"/>
    <rect width="99" height="30.986" y="35.211" fill="#F5582E" rx="4"/>
    <rect width="22.629" height="100" x="38.186" fill="#F9C93A"/>
    <path fill="#FFF" fill-rule="nonzero" d="M33.7,34.5070423 L65.3,34.5070423 C67.509139,34.5070423 69.3,36.2979033 69.3,38.5070423 L69.3,61.4929577 C69.3,63.7020967 67.509139,65.4929577 65.3,65.4929577 L33.7,65.4929577 C31.490861,65.4929577 29.7,63.7020967 29.7,61.4929577 L29.7,38.5070423 C29.7,36.2979033 31.490861,34.5070423 33.7,34.5070423 Z M41.7,53.4929577 L57.3,53.4929577 L57.3,46.5070423 L41.7,46.5070423 L41.7,53.4929577 Z"/>
  </g>
</svg>
