<svg xmlns="http://www.w3.org/2000/svg" width="84" height="100">
  <defs>
    <linearGradient id="a" x1="0%" x2="0%" y1="100%" y2="0%">
      <stop offset="0%" stop-color="#3DDCC8"/>
      <stop offset="100%" stop-color="#1FCCB0"/>
    </linearGradient>
  </defs>
  <path fill-rule="evenodd" fill="url(#a)" d="M84 22v74a4 4 0 0 1-4 4H4a4 4 0 0 1-4-4V4a4 4 0 0 1 4-4h58l22 22z"/>
  <path fill-rule="evenodd" fill="#80F7D7" d="M84 22H66a4 4 0 0 1-4-4V0l22 22z"/>
  <path fill-rule="evenodd" opacity=".6" fill="#FFF" d="M40.441 73.877C36.352 69.812 29.1 61.973 29.1 61.973c-1.712-1.694-1.218-3.674 0-4.884 1.217-1.21 3.199-.473 4.913 1.221l4.913 4.884-.089-18.866c0-2.396.735-4.336 3.159-4.336 2.42 0 3.159 1.94 3.159 4.336l-.088 18.866 4.913-4.884c1.713-1.694 3.695-2.431 4.913-1.221 1.217 1.21 1.712 3.19 0 4.884 0 0-7.253 7.839-11.341 11.904-1.465 1.456-1.533 1.569-3.111 0z"/>
  <path fill-rule="evenodd" fill="#FFF" d="M29.321 23.769c.306 0 .475-.01.791-.04v1.418a5.73 5.73 0 0 1-.999.098c-2.195 0-3.075-.802-3.075-2.816v-6.394h-1.721v-1.407h1.721V11.9h1.701v2.728h2.373v1.407h-2.373v5.964c0 1.242.474 1.77 1.582 1.77zM18.2 25.352c-1.483 0-2.749-.694-3.422-1.867h-.158v1.682h-1.622V10.443h1.701v5.847h.158c.584-1.134 1.879-1.848 3.343-1.848 2.709 0 4.47 2.141 4.47 5.455 0 3.295-1.771 5.455-4.47 5.455zm-.396-9.395c-1.938 0-3.144 1.506-3.144 3.94s1.206 3.94 3.144 3.94c1.948 0 3.105-1.476 3.105-3.94s-1.157-3.94-3.105-3.94z"/>
</svg>
