<svg xmlns="http://www.w3.org/2000/svg" width="84" height="100">
  <defs>
    <linearGradient id="a" x1="0%" x2="0%" y1="100%" y2="0%">
      <stop offset="0%" stop-color="#C1C9CC"/>
      <stop offset="100%" stop-color="#A7B1B6"/>
    </linearGradient>
  </defs>
  <path fill-rule="evenodd" fill="url(#a)" d="M84 22v74a4 4 0 0 1-4 4H4a4 4 0 0 1-4-4V4a4 4 0 0 1 4-4h58l22 22z"/>
  <path fill-rule="evenodd" fill="#CEDAE1" d="M84 22H66a4 4 0 0 1-4-4V0l22 22z"/>
  <path fill-rule="evenodd" opacity=".6" fill="#FFF" d="M63.794 59.013H20.225c-.668 0-1.21-.561-1.21-1.251v-2.503c0-.691.542-1.251 1.21-1.251h43.569c.668 0 1.21.56 1.21 1.251v2.503c0 .69-.542 1.251-1.21 1.251zm0-15.016H20.225c-.668 0-1.21-.56-1.21-1.251v-2.503c0-.691.542-1.251 1.21-1.251h43.569c.668 0 1.21.56 1.21 1.251v2.503c0 .691-.542 1.251-1.21 1.251zM20.187 68.991h43.62c.661 0 1.197.56 1.197 1.251v2.503c0 .691-.536 1.251-1.197 1.251h-43.62c-.661 0-1.197-.56-1.197-1.251v-2.503c0-.691.536-1.251 1.197-1.251z"/>
</svg>
